<mxfile host="app.diagrams.net" modified="2021-11-26T19:20:37.678Z" agent="5.0 (Windows NT 10.0; Win64; x64) AppleWebKit/537.36 (KHTML, like Gecko) Chrome/95.0.4638.69 Safari/537.36" etag="Y3owOLcS4zA3spz-_Nlo" version="15.8.3" type="github">
  <diagram id="bQ9aRvcoyAfyGHdNT-MZ" name="Page-1">
    <mxGraphModel dx="2272" dy="762" grid="1" gridSize="10" guides="1" tooltips="1" connect="1" arrows="1" fold="1" page="1" pageScale="1" pageWidth="850" pageHeight="1100" math="0" shadow="0">
      <root>
        <mxCell id="0" />
        <mxCell id="1" parent="0" />
        <mxCell id="ESut_bvNTGMEkcxOXkCT-1" value="Deli-cious" style="rounded=0;whiteSpace=wrap;html=1;" vertex="1" parent="1">
          <mxGeometry x="360" y="160" width="120" height="60" as="geometry" />
        </mxCell>
        <mxCell id="ESut_bvNTGMEkcxOXkCT-2" value="1.0 User" style="rounded=0;whiteSpace=wrap;html=1;" vertex="1" parent="1">
          <mxGeometry x="160" y="260" width="120" height="60" as="geometry" />
        </mxCell>
        <mxCell id="ESut_bvNTGMEkcxOXkCT-3" value="2.0 Supermarket" style="rounded=0;whiteSpace=wrap;html=1;" vertex="1" parent="1">
          <mxGeometry x="660" y="260" width="120" height="60" as="geometry" />
        </mxCell>
        <mxCell id="ESut_bvNTGMEkcxOXkCT-5" value="" style="edgeStyle=elbowEdgeStyle;elbow=vertical;endArrow=classic;html=1;rounded=0;exitX=0.5;exitY=1;exitDx=0;exitDy=0;" edge="1" parent="1" source="ESut_bvNTGMEkcxOXkCT-1" target="ESut_bvNTGMEkcxOXkCT-2">
          <mxGeometry width="50" height="50" relative="1" as="geometry">
            <mxPoint x="430" y="350" as="sourcePoint" />
            <mxPoint x="480" y="300" as="targetPoint" />
          </mxGeometry>
        </mxCell>
        <mxCell id="ESut_bvNTGMEkcxOXkCT-6" value="1.1 Customer" style="rounded=0;whiteSpace=wrap;html=1;" vertex="1" parent="1">
          <mxGeometry x="30" y="360" width="80" height="40" as="geometry" />
        </mxCell>
        <mxCell id="ESut_bvNTGMEkcxOXkCT-7" value="1.2 Admin" style="rounded=0;whiteSpace=wrap;html=1;" vertex="1" parent="1">
          <mxGeometry x="360" y="360" width="80" height="40" as="geometry" />
        </mxCell>
        <mxCell id="ESut_bvNTGMEkcxOXkCT-8" value="" style="edgeStyle=elbowEdgeStyle;elbow=vertical;endArrow=classic;html=1;rounded=0;exitX=0.5;exitY=1;exitDx=0;exitDy=0;entryX=0.5;entryY=0;entryDx=0;entryDy=0;" edge="1" parent="1" source="ESut_bvNTGMEkcxOXkCT-2" target="ESut_bvNTGMEkcxOXkCT-6">
          <mxGeometry width="50" height="50" relative="1" as="geometry">
            <mxPoint x="280" y="400" as="sourcePoint" />
            <mxPoint x="330" y="350" as="targetPoint" />
          </mxGeometry>
        </mxCell>
        <mxCell id="ESut_bvNTGMEkcxOXkCT-9" value="" style="edgeStyle=elbowEdgeStyle;elbow=vertical;endArrow=classic;html=1;rounded=0;exitX=0.5;exitY=1;exitDx=0;exitDy=0;entryX=0.5;entryY=0;entryDx=0;entryDy=0;" edge="1" parent="1" source="ESut_bvNTGMEkcxOXkCT-2" target="ESut_bvNTGMEkcxOXkCT-7">
          <mxGeometry width="50" height="50" relative="1" as="geometry">
            <mxPoint x="280" y="400" as="sourcePoint" />
            <mxPoint x="330" y="350" as="targetPoint" />
          </mxGeometry>
        </mxCell>
        <mxCell id="ESut_bvNTGMEkcxOXkCT-10" value="" style="edgeStyle=elbowEdgeStyle;elbow=vertical;endArrow=classic;html=1;rounded=0;exitX=0.5;exitY=1;exitDx=0;exitDy=0;" edge="1" parent="1" source="ESut_bvNTGMEkcxOXkCT-1" target="ESut_bvNTGMEkcxOXkCT-3">
          <mxGeometry width="50" height="50" relative="1" as="geometry">
            <mxPoint x="480" y="320" as="sourcePoint" />
            <mxPoint x="530" y="270" as="targetPoint" />
          </mxGeometry>
        </mxCell>
        <mxCell id="ESut_bvNTGMEkcxOXkCT-12" value="1.1.1 Account" style="rounded=0;whiteSpace=wrap;html=1;" vertex="1" parent="1">
          <mxGeometry x="-180" y="430" width="80" height="40" as="geometry" />
        </mxCell>
        <mxCell id="ESut_bvNTGMEkcxOXkCT-13" value="1.1.2 Login" style="rounded=0;whiteSpace=wrap;html=1;" vertex="1" parent="1">
          <mxGeometry x="-50" y="430" width="80" height="40" as="geometry" />
        </mxCell>
        <mxCell id="ESut_bvNTGMEkcxOXkCT-14" value="1.1.3 Wishlist" style="rounded=0;whiteSpace=wrap;html=1;" vertex="1" parent="1">
          <mxGeometry x="80" y="430" width="80" height="40" as="geometry" />
        </mxCell>
        <mxCell id="ESut_bvNTGMEkcxOXkCT-15" value="1.1.4 Reward" style="rounded=0;whiteSpace=wrap;html=1;" vertex="1" parent="1">
          <mxGeometry x="180" y="430" width="80" height="40" as="geometry" />
        </mxCell>
        <mxCell id="ESut_bvNTGMEkcxOXkCT-16" value="" style="edgeStyle=elbowEdgeStyle;elbow=vertical;endArrow=classic;html=1;rounded=0;exitX=0.5;exitY=1;exitDx=0;exitDy=0;" edge="1" parent="1" source="ESut_bvNTGMEkcxOXkCT-6" target="ESut_bvNTGMEkcxOXkCT-12">
          <mxGeometry width="50" height="50" relative="1" as="geometry">
            <mxPoint x="-30" y="430" as="sourcePoint" />
            <mxPoint x="90" y="390" as="targetPoint" />
          </mxGeometry>
        </mxCell>
        <mxCell id="ESut_bvNTGMEkcxOXkCT-18" value="" style="edgeStyle=elbowEdgeStyle;elbow=vertical;endArrow=classic;html=1;rounded=0;exitX=0.5;exitY=1;exitDx=0;exitDy=0;" edge="1" parent="1" source="ESut_bvNTGMEkcxOXkCT-6" target="ESut_bvNTGMEkcxOXkCT-14">
          <mxGeometry width="50" height="50" relative="1" as="geometry">
            <mxPoint x="40" y="440" as="sourcePoint" />
            <mxPoint x="90" y="390" as="targetPoint" />
          </mxGeometry>
        </mxCell>
        <mxCell id="ESut_bvNTGMEkcxOXkCT-19" value="" style="edgeStyle=elbowEdgeStyle;elbow=vertical;endArrow=classic;html=1;rounded=0;exitX=0.5;exitY=1;exitDx=0;exitDy=0;" edge="1" parent="1" source="ESut_bvNTGMEkcxOXkCT-6" target="ESut_bvNTGMEkcxOXkCT-15">
          <mxGeometry width="50" height="50" relative="1" as="geometry">
            <mxPoint x="40" y="440" as="sourcePoint" />
            <mxPoint x="90" y="390" as="targetPoint" />
          </mxGeometry>
        </mxCell>
        <mxCell id="ESut_bvNTGMEkcxOXkCT-20" value="1.2.1 Account" style="rounded=0;whiteSpace=wrap;html=1;" vertex="1" parent="1">
          <mxGeometry x="295" y="430" width="80" height="40" as="geometry" />
        </mxCell>
        <mxCell id="ESut_bvNTGMEkcxOXkCT-21" value="1.2.2 Login" style="rounded=0;whiteSpace=wrap;html=1;" vertex="1" parent="1">
          <mxGeometry x="430" y="430" width="80" height="40" as="geometry" />
        </mxCell>
        <mxCell id="ESut_bvNTGMEkcxOXkCT-23" value="" style="edgeStyle=elbowEdgeStyle;elbow=vertical;endArrow=classic;html=1;rounded=0;exitX=0.5;exitY=1;exitDx=0;exitDy=0;" edge="1" parent="1" source="ESut_bvNTGMEkcxOXkCT-7" target="ESut_bvNTGMEkcxOXkCT-20">
          <mxGeometry width="50" height="50" relative="1" as="geometry">
            <mxPoint x="510" y="440" as="sourcePoint" />
            <mxPoint x="560" y="390" as="targetPoint" />
          </mxGeometry>
        </mxCell>
        <mxCell id="ESut_bvNTGMEkcxOXkCT-24" value="" style="edgeStyle=elbowEdgeStyle;elbow=vertical;endArrow=classic;html=1;rounded=0;exitX=0.5;exitY=1;exitDx=0;exitDy=0;entryX=0.5;entryY=0;entryDx=0;entryDy=0;" edge="1" parent="1" source="ESut_bvNTGMEkcxOXkCT-7" target="ESut_bvNTGMEkcxOXkCT-21">
          <mxGeometry width="50" height="50" relative="1" as="geometry">
            <mxPoint x="510" y="440" as="sourcePoint" />
            <mxPoint x="560" y="390" as="targetPoint" />
          </mxGeometry>
        </mxCell>
        <mxCell id="ESut_bvNTGMEkcxOXkCT-25" value="2.1 Item" style="rounded=0;whiteSpace=wrap;html=1;" vertex="1" parent="1">
          <mxGeometry x="570" y="360" width="80" height="40" as="geometry" />
        </mxCell>
        <mxCell id="ESut_bvNTGMEkcxOXkCT-26" value="2.2 SavedMoney" style="rounded=0;whiteSpace=wrap;html=1;" vertex="1" parent="1">
          <mxGeometry x="680" y="360" width="80" height="40" as="geometry" />
        </mxCell>
        <mxCell id="ESut_bvNTGMEkcxOXkCT-27" value="2.3 Map" style="rounded=0;whiteSpace=wrap;html=1;" vertex="1" parent="1">
          <mxGeometry x="790" y="360" width="80" height="40" as="geometry" />
        </mxCell>
        <mxCell id="ESut_bvNTGMEkcxOXkCT-28" value="" style="edgeStyle=elbowEdgeStyle;elbow=vertical;endArrow=classic;html=1;rounded=0;entryX=0.5;entryY=0;entryDx=0;entryDy=0;" edge="1" parent="1" source="ESut_bvNTGMEkcxOXkCT-3" target="ESut_bvNTGMEkcxOXkCT-25">
          <mxGeometry width="50" height="50" relative="1" as="geometry">
            <mxPoint x="510" y="440" as="sourcePoint" />
            <mxPoint x="560" y="390" as="targetPoint" />
          </mxGeometry>
        </mxCell>
        <mxCell id="ESut_bvNTGMEkcxOXkCT-29" value="" style="edgeStyle=elbowEdgeStyle;elbow=vertical;endArrow=classic;html=1;rounded=0;entryX=0.5;entryY=0;entryDx=0;entryDy=0;exitX=0.5;exitY=1;exitDx=0;exitDy=0;" edge="1" parent="1" source="ESut_bvNTGMEkcxOXkCT-3" target="ESut_bvNTGMEkcxOXkCT-26">
          <mxGeometry width="50" height="50" relative="1" as="geometry">
            <mxPoint x="510" y="440" as="sourcePoint" />
            <mxPoint x="560" y="390" as="targetPoint" />
          </mxGeometry>
        </mxCell>
        <mxCell id="ESut_bvNTGMEkcxOXkCT-30" value="" style="edgeStyle=elbowEdgeStyle;elbow=vertical;endArrow=classic;html=1;rounded=0;entryX=0.5;entryY=0;entryDx=0;entryDy=0;exitX=0.5;exitY=1;exitDx=0;exitDy=0;" edge="1" parent="1" source="ESut_bvNTGMEkcxOXkCT-3" target="ESut_bvNTGMEkcxOXkCT-27">
          <mxGeometry width="50" height="50" relative="1" as="geometry">
            <mxPoint x="520" y="440" as="sourcePoint" />
            <mxPoint x="570" y="390" as="targetPoint" />
          </mxGeometry>
        </mxCell>
        <mxCell id="ESut_bvNTGMEkcxOXkCT-31" value="2.1.3 Load Map" style="rounded=0;whiteSpace=wrap;html=1;" vertex="1" parent="1">
          <mxGeometry x="790" y="430" width="80" height="40" as="geometry" />
        </mxCell>
        <mxCell id="ESut_bvNTGMEkcxOXkCT-32" value="" style="edgeStyle=elbowEdgeStyle;elbow=vertical;endArrow=classic;html=1;rounded=0;entryX=0.5;entryY=0;entryDx=0;entryDy=0;" edge="1" parent="1" target="ESut_bvNTGMEkcxOXkCT-13">
          <mxGeometry width="50" height="50" relative="1" as="geometry">
            <mxPoint x="70" y="400" as="sourcePoint" />
            <mxPoint x="230" y="420" as="targetPoint" />
          </mxGeometry>
        </mxCell>
        <mxCell id="ESut_bvNTGMEkcxOXkCT-33" value="2.1.2" style="rounded=0;whiteSpace=wrap;html=1;" vertex="1" parent="1">
          <mxGeometry x="680" y="430" width="80" height="40" as="geometry" />
        </mxCell>
        <mxCell id="ESut_bvNTGMEkcxOXkCT-34" value="2.1.1" style="rounded=0;whiteSpace=wrap;html=1;" vertex="1" parent="1">
          <mxGeometry x="570" y="430" width="80" height="40" as="geometry" />
        </mxCell>
        <mxCell id="ESut_bvNTGMEkcxOXkCT-35" value="1.1.1.1 Create account" style="rounded=0;whiteSpace=wrap;html=1;" vertex="1" parent="1">
          <mxGeometry x="-205" y="490" width="130" height="40" as="geometry" />
        </mxCell>
        <mxCell id="ESut_bvNTGMEkcxOXkCT-36" value="1.1.2.1 User Login" style="rounded=0;whiteSpace=wrap;html=1;" vertex="1" parent="1">
          <mxGeometry x="-70" y="490" width="120" height="40" as="geometry" />
        </mxCell>
        <mxCell id="ESut_bvNTGMEkcxOXkCT-37" value="1.1.3 Wishlist" style="rounded=0;whiteSpace=wrap;html=1;" vertex="1" parent="1">
          <mxGeometry x="80" y="490" width="80" height="40" as="geometry" />
        </mxCell>
        <mxCell id="ESut_bvNTGMEkcxOXkCT-38" value="1.1.4 Reward" style="rounded=0;whiteSpace=wrap;html=1;" vertex="1" parent="1">
          <mxGeometry x="180" y="490" width="80" height="40" as="geometry" />
        </mxCell>
        <mxCell id="ESut_bvNTGMEkcxOXkCT-39" value="1.1.1.3 Update account profile" style="rounded=0;whiteSpace=wrap;html=1;" vertex="1" parent="1">
          <mxGeometry x="-200" y="610" width="120" height="40" as="geometry" />
        </mxCell>
        <mxCell id="ESut_bvNTGMEkcxOXkCT-40" value="1.1.2.2 User review the order" style="rounded=0;whiteSpace=wrap;html=1;" vertex="1" parent="1">
          <mxGeometry x="-70" y="550" width="120" height="40" as="geometry" />
        </mxCell>
        <mxCell id="ESut_bvNTGMEkcxOXkCT-41" value="1.1.3 Wishlist" style="rounded=0;whiteSpace=wrap;html=1;" vertex="1" parent="1">
          <mxGeometry x="80" y="550" width="80" height="40" as="geometry" />
        </mxCell>
        <mxCell id="ESut_bvNTGMEkcxOXkCT-42" value="1.1.4 Reward" style="rounded=0;whiteSpace=wrap;html=1;" vertex="1" parent="1">
          <mxGeometry x="180" y="550" width="80" height="40" as="geometry" />
        </mxCell>
        <mxCell id="ESut_bvNTGMEkcxOXkCT-44" value="1.1.2.3 User Logout" style="rounded=0;whiteSpace=wrap;html=1;" vertex="1" parent="1">
          <mxGeometry x="-70" y="610" width="120" height="40" as="geometry" />
        </mxCell>
        <mxCell id="ESut_bvNTGMEkcxOXkCT-45" value="1.1.3 Wishlist" style="rounded=0;whiteSpace=wrap;html=1;" vertex="1" parent="1">
          <mxGeometry x="80" y="610" width="80" height="40" as="geometry" />
        </mxCell>
        <mxCell id="ESut_bvNTGMEkcxOXkCT-46" value="1.1.4 Reward" style="rounded=0;whiteSpace=wrap;html=1;" vertex="1" parent="1">
          <mxGeometry x="180" y="610" width="80" height="40" as="geometry" />
        </mxCell>
        <mxCell id="ESut_bvNTGMEkcxOXkCT-47" value="" style="endArrow=classic;html=1;rounded=0;exitX=0.5;exitY=1;exitDx=0;exitDy=0;entryX=0.5;entryY=0;entryDx=0;entryDy=0;" edge="1" parent="1" source="ESut_bvNTGMEkcxOXkCT-12" target="ESut_bvNTGMEkcxOXkCT-35">
          <mxGeometry width="50" height="50" relative="1" as="geometry">
            <mxPoint x="420" y="520" as="sourcePoint" />
            <mxPoint x="470" y="470" as="targetPoint" />
          </mxGeometry>
        </mxCell>
        <mxCell id="ESut_bvNTGMEkcxOXkCT-51" value="" style="endArrow=classic;html=1;rounded=0;exitX=0.5;exitY=1;exitDx=0;exitDy=0;" edge="1" parent="1" source="ESut_bvNTGMEkcxOXkCT-13" target="ESut_bvNTGMEkcxOXkCT-36">
          <mxGeometry width="50" height="50" relative="1" as="geometry">
            <mxPoint x="450" y="420" as="sourcePoint" />
            <mxPoint x="500" y="370" as="targetPoint" />
          </mxGeometry>
        </mxCell>
        <mxCell id="ESut_bvNTGMEkcxOXkCT-52" value="" style="endArrow=classic;html=1;rounded=0;exitX=0.5;exitY=1;exitDx=0;exitDy=0;entryX=0.5;entryY=0;entryDx=0;entryDy=0;" edge="1" parent="1" source="ESut_bvNTGMEkcxOXkCT-36" target="ESut_bvNTGMEkcxOXkCT-40">
          <mxGeometry width="50" height="50" relative="1" as="geometry">
            <mxPoint x="450" y="420" as="sourcePoint" />
            <mxPoint x="500" y="370" as="targetPoint" />
          </mxGeometry>
        </mxCell>
        <mxCell id="ESut_bvNTGMEkcxOXkCT-53" value="" style="endArrow=classic;html=1;rounded=0;entryX=0.5;entryY=0;entryDx=0;entryDy=0;" edge="1" parent="1" source="ESut_bvNTGMEkcxOXkCT-40" target="ESut_bvNTGMEkcxOXkCT-44">
          <mxGeometry width="50" height="50" relative="1" as="geometry">
            <mxPoint x="390" y="460" as="sourcePoint" />
            <mxPoint x="440" y="410" as="targetPoint" />
          </mxGeometry>
        </mxCell>
        <mxCell id="ESut_bvNTGMEkcxOXkCT-54" value="1.2.1.1 Create account" style="rounded=0;whiteSpace=wrap;html=1;" vertex="1" parent="1">
          <mxGeometry x="270" y="490" width="130" height="40" as="geometry" />
        </mxCell>
        <mxCell id="ESut_bvNTGMEkcxOXkCT-55" value="" style="endArrow=classic;html=1;rounded=0;exitX=0.5;exitY=1;exitDx=0;exitDy=0;" edge="1" parent="1" source="ESut_bvNTGMEkcxOXkCT-20" target="ESut_bvNTGMEkcxOXkCT-54">
          <mxGeometry width="50" height="50" relative="1" as="geometry">
            <mxPoint x="390" y="460" as="sourcePoint" />
            <mxPoint x="440" y="410" as="targetPoint" />
          </mxGeometry>
        </mxCell>
        <mxCell id="ESut_bvNTGMEkcxOXkCT-56" value="1.2.1.3 Update account profile" style="rounded=0;whiteSpace=wrap;html=1;" vertex="1" parent="1">
          <mxGeometry x="275" y="610" width="120" height="40" as="geometry" />
        </mxCell>
        <mxCell id="ESut_bvNTGMEkcxOXkCT-58" value="1.1.2.1 User Login" style="rounded=0;whiteSpace=wrap;html=1;" vertex="1" parent="1">
          <mxGeometry x="410" y="490" width="120" height="40" as="geometry" />
        </mxCell>
        <mxCell id="ESut_bvNTGMEkcxOXkCT-59" value="1.1.2.2 User review the order" style="rounded=0;whiteSpace=wrap;html=1;" vertex="1" parent="1">
          <mxGeometry x="410" y="550" width="120" height="40" as="geometry" />
        </mxCell>
        <mxCell id="ESut_bvNTGMEkcxOXkCT-60" value="1.1.2.3 User Logout" style="rounded=0;whiteSpace=wrap;html=1;" vertex="1" parent="1">
          <mxGeometry x="410" y="610" width="120" height="40" as="geometry" />
        </mxCell>
        <mxCell id="ESut_bvNTGMEkcxOXkCT-61" value="" style="endArrow=classic;html=1;rounded=0;exitX=0.5;exitY=1;exitDx=0;exitDy=0;entryX=0.5;entryY=0;entryDx=0;entryDy=0;" edge="1" parent="1" source="ESut_bvNTGMEkcxOXkCT-21" target="ESut_bvNTGMEkcxOXkCT-58">
          <mxGeometry width="50" height="50" relative="1" as="geometry">
            <mxPoint x="390" y="460" as="sourcePoint" />
            <mxPoint x="440" y="410" as="targetPoint" />
          </mxGeometry>
        </mxCell>
        <mxCell id="ESut_bvNTGMEkcxOXkCT-62" value="" style="endArrow=classic;html=1;rounded=0;entryX=0.5;entryY=0;entryDx=0;entryDy=0;exitX=0.5;exitY=1;exitDx=0;exitDy=0;" edge="1" parent="1" source="ESut_bvNTGMEkcxOXkCT-58" target="ESut_bvNTGMEkcxOXkCT-59">
          <mxGeometry width="50" height="50" relative="1" as="geometry">
            <mxPoint x="390" y="460" as="sourcePoint" />
            <mxPoint x="440" y="410" as="targetPoint" />
          </mxGeometry>
        </mxCell>
        <mxCell id="ESut_bvNTGMEkcxOXkCT-63" value="" style="endArrow=classic;html=1;rounded=0;exitX=0.5;exitY=1;exitDx=0;exitDy=0;" edge="1" parent="1" source="ESut_bvNTGMEkcxOXkCT-59" target="ESut_bvNTGMEkcxOXkCT-60">
          <mxGeometry width="50" height="50" relative="1" as="geometry">
            <mxPoint x="390" y="460" as="sourcePoint" />
            <mxPoint x="440" y="410" as="targetPoint" />
          </mxGeometry>
        </mxCell>
        <mxCell id="ESut_bvNTGMEkcxOXkCT-64" value="1.1.1.2 Create account profile" style="rounded=0;whiteSpace=wrap;html=1;" vertex="1" parent="1">
          <mxGeometry x="-200" y="550" width="120" height="40" as="geometry" />
        </mxCell>
        <mxCell id="ESut_bvNTGMEkcxOXkCT-72" style="edgeStyle=orthogonalEdgeStyle;rounded=0;orthogonalLoop=1;jettySize=auto;html=1;exitX=0.5;exitY=1;exitDx=0;exitDy=0;entryX=0.5;entryY=0;entryDx=0;entryDy=0;" edge="1" parent="1" source="ESut_bvNTGMEkcxOXkCT-65" target="ESut_bvNTGMEkcxOXkCT-56">
          <mxGeometry relative="1" as="geometry" />
        </mxCell>
        <mxCell id="ESut_bvNTGMEkcxOXkCT-65" value="1.2.1.2 Create account profile" style="rounded=0;whiteSpace=wrap;html=1;" vertex="1" parent="1">
          <mxGeometry x="275" y="550" width="120" height="40" as="geometry" />
        </mxCell>
        <mxCell id="ESut_bvNTGMEkcxOXkCT-66" value="" style="endArrow=classic;html=1;rounded=0;exitX=0.5;exitY=1;exitDx=0;exitDy=0;entryX=0.5;entryY=0;entryDx=0;entryDy=0;" edge="1" parent="1" source="ESut_bvNTGMEkcxOXkCT-35" target="ESut_bvNTGMEkcxOXkCT-64">
          <mxGeometry width="50" height="50" relative="1" as="geometry">
            <mxPoint x="390" y="460" as="sourcePoint" />
            <mxPoint x="440" y="410" as="targetPoint" />
          </mxGeometry>
        </mxCell>
        <mxCell id="ESut_bvNTGMEkcxOXkCT-68" value="" style="endArrow=classic;html=1;rounded=0;" edge="1" parent="1" target="ESut_bvNTGMEkcxOXkCT-39">
          <mxGeometry width="50" height="50" relative="1" as="geometry">
            <mxPoint x="-140" y="590" as="sourcePoint" />
            <mxPoint x="440" y="410" as="targetPoint" />
          </mxGeometry>
        </mxCell>
        <mxCell id="ESut_bvNTGMEkcxOXkCT-71" value="" style="endArrow=classic;html=1;rounded=0;exitX=0.5;exitY=1;exitDx=0;exitDy=0;entryX=0.5;entryY=0;entryDx=0;entryDy=0;" edge="1" parent="1" source="ESut_bvNTGMEkcxOXkCT-54" target="ESut_bvNTGMEkcxOXkCT-65">
          <mxGeometry width="50" height="50" relative="1" as="geometry">
            <mxPoint x="390" y="460" as="sourcePoint" />
            <mxPoint x="440" y="410" as="targetPoint" />
          </mxGeometry>
        </mxCell>
      </root>
    </mxGraphModel>
  </diagram>
</mxfile>
